# xmcd
#
# Track frame offsets: 
#        150
#        22950
#        41167
#        62427
#        91842
#        116687
#        143347
#        167415
#        183925
#        215442
#        237907
#        258985
#        283237
#        305415
#
# Disc length: 4568 seconds
#
# Revision: 0
# Processed by: cddbd v1.5.1PL0 Copyright (c) Steve Scherf et al.
# Submitted via: ExactAudioCopy v0.95a5
#
DISCID=b711d60e
DTITLE=Peter Green Splinter Group - Destiny Road
DYEAR=1999
DGENRE=Blues
TTITLE0=Big Change Is Gonna Come
TTITLE1=Say That You Want To
TTITLE2=Heart Of Stone
TTITLE3=You'll Be Sorry Someday
TTITLE4=Tribal Dance
TTITLE5=Burglar
TTITLE6=Turn Your Love Away
TTITLE7=Madison Blues
TTITLE8=I Can't Help Myself
TTITLE9=Indians
TTITLE10=Hiding In Shadows
TTITLE11=There's A River
TTITLE12=The Brave
TTITLE13=Gambling Man
EXTD=
EXTT0=
EXTT1=
EXTT2=
EXTT3=
EXTT4=
EXTT5=
EXTT6=
EXTT7=
EXTT8=
EXTT9=
EXTT10=
EXTT11=
EXTT12=
EXTT13=
PLAYORDER=
